<?xml version="1.0" encoding="utf-8"?>
<!-- Generator: Adobe Illustrator 24.3.0, SVG Export Plug-In . SVG Version: 6.00 Build 0)  -->
<svg version="1.1" id="Layer_1" xmlns="http://www.w3.org/2000/svg" xmlns:xlink="http://www.w3.org/1999/xlink" x="0px" y="0px"
	 viewBox="0 0 638 633" style="enable-background:new 0 0 638 633;" xml:space="preserve">
<style type="text/css">
	.st0{display:none;}
	.st1{display:inline;stroke:#000000;stroke-miterlimit:10;}
	.st2{fill:#FFFFFF;}
	.st3{display:none;fill:#FFFFFF;}
	.st4{fill:none;stroke:#FFFFFF;stroke-width:15;}
	.st5{clip-path:url(#SVGID_2_);fill:#FFFFFF;}
	.st6{clip-path:url(#SVGID_4_);fill:#FFFFFF;}
	.st7{clip-path:url(#SVGID_6_);fill:#FFFFFF;}
	.st8{clip-path:url(#SVGID_8_);fill:#FFFFFF;}
	.st9{clip-path:url(#SVGID_10_);fill:#FFFFFF;}
	.st10{clip-path:url(#SVGID_12_);fill:#FFFFFF;}
	.st11{clip-path:url(#SVGID_14_);fill:#FFFFFF;}
	.st12{clip-path:url(#SVGID_16_);fill:#FFFFFF;}
</style>
<g id="Layer_2_1_" class="st0">
	<rect x="0.2" y="1" class="st1" width="638" height="635.3"/>
	<rect x="257.2" y="436.2" class="st2" width="15" height="4.9"/>
	<rect x="360.1" y="436.2" class="st2" width="15" height="4.9"/>
	<rect x="595.1" y="260.4" class="st2" width="4.9" height="15"/>
	<rect x="351.4" y="617.1" class="st2" width="4.9" height="15"/>
</g>
<g id="Layer_3">
	<g id="Main">
		<polyline id="S1R" class="st2" points="444,275.4 526,275.4 526,260.4 444,260.4 444,275.4 		"/>
		<path id="S2U_1_" class="st2" d="M511,253.9v7.6h15v-7.6H511z M526,188c0-4.2-3.4-7.6-7.5-7.6s-7.5,3.4-7.5,7.6H526z M526,253.9
			V188h-15v65.9H526z"/>
		<path class="st3" d="M532.4,260.4h-7.6v15h7.6V260.4z M599.3,275.4c4.2,0,7.6-3.4,7.6-7.5s-3.4-7.5-7.6-7.5V275.4z M532.4,275.4
			h66.8v-15h-66.8V275.4z"/>
		<polyline id="S1U" class="st2" points="381.5,192.6 381.5,111.9 366.5,111.9 366.5,192.6 381.5,192.6 		"/>
		<path id="S2R" class="st2" d="M454.8,126.8c4.2,0,7.6-3.4,7.6-7.5s-3.4-7.5-7.6-7.5V126.8z M388.2,111.8h-7.6v15h7.6V111.8z
			 M454.8,111.8h-66.6v15h66.6V111.8z"/>
		<path id="S2U" class="st2" d="M366.5,105.3v7.6h15v-7.6H366.5z M381.5,39.4c0-4.2-3.4-7.6-7.5-7.6s-7.5,3.4-7.5,7.6H381.5z
			 M381.5,105.3V39.4h-15v65.9H381.5z"/>
		<polyline id="S1L" class="st2" points="193.6,357.7 112.7,357.7 112.7,372.7 193.6,372.7 193.6,357.7 		"/>
		<path id="S2D_1_" class="st2" d="M127.7,379v-7.6h-15v7.6H127.7z M112.7,445c0,4.2,3.4,7.6,7.5,7.6s7.5-3.4,7.5-7.6H112.7z
			 M112.7,379v66h15v-66H112.7z"/>
		<path id="S2L_1_" class="st2" d="M106.2,372.6h7.6v-15h-7.6V372.6z M39.4,357.6c-4.2,0-7.6,3.4-7.6,7.5s3.4,7.5,7.6,7.5V357.6z
			 M106.2,357.6H39.4v15h66.8C106.2,372.6,106.2,357.6,106.2,357.6z"/>
		<polyline id="S1D" class="st2" points="257.2,439.9 257.2,521.1 272.2,521.1 272.2,439.9 257.2,439.9 		"/>
		<path id="S2L" class="st2" d="M183.9,506.2c-4.2,0-7.6,3.4-7.6,7.5c0,4.1,3.4,7.5,7.6,7.5V506.2z M250.6,521.2h7.6v-15h-7.6V521.2
			z M183.9,521.2h66.7v-15h-66.7V521.2z"/>
		<path id="S2D" class="st2" d="M272.2,527.5v-7.6h-15v7.6H272.2z M257.2,593.6c0,4.2,3.4,7.6,7.5,7.6s7.5-3.4,7.5-7.6H257.2z
			 M257.2,527.5v66.1h15v-66.1H257.2z"/>
		<polyline id="L1D" class="st2" points="360.1,439.9 360.1,549.7 375.1,549.7 375.1,439.9 360.1,439.9 		"/>
		<polyline id="L1R" class="st2" points="444.5,377.8 554.3,377.8 554.3,362.8 444.5,362.8 444.5,377.8 		"/>
		<line id="L2D_1_" class="st4" x1="546.8" y1="486.3" x2="546.8" y2="376.5"/>
		<path id="L3L" class="st2" d="M532.7,471.3h7.6v15h-7.6V471.3z M491.5,486.3c-4.2,0-7.6-3.4-7.6-7.5s3.4-7.5,7.6-7.5V486.3z
			 M532.7,486.3h-41.2v-15h41.2V486.3z"/>
		<line id="L2R_1_" class="st4" x1="637.5" y1="370.2" x2="553.3" y2="370.2"/>
		<path id="L3U_1_" class="st2" d="M622.5,315.5c0-4.2,3.4-7.6,7.5-7.6s7.5,3.4,7.5,7.6H622.5z M637.5,356.2v7.6h-15v-7.6H637.5z
			 M637.5,315.5v40.7h-15v-40.7H637.5z"/>
		<line id="L2R" class="st4" x1="485" y1="542.3" x2="373.8" y2="542.3"/>
		<path id="L3D_1_" class="st2" d="M484.9,555.2v-7.7h-15v7.7H484.9z M469.9,596.4c0,4.3,3.4,7.7,7.5,7.7s7.5-3.5,7.5-7.7H469.9z
			 M469.9,555.2v41.2h15v-41.2H469.9z"/>
		<line id="L2D" class="st4" x1="367.6" y1="632" x2="367.6" y2="547.4"/>
		<path class="st3" d="M312.3,617.1c-4.3,0-7.7,3.4-7.7,7.5s3.4,7.5,7.7,7.5V617.1z M353.9,632.1h7.7v-15h-7.7V632.1z M312.3,632.1
			h41.5v-15h-41.5V632.1z"/>
		<polyline id="L1U" class="st2" points="277.4,192.6 277.4,83.3 262.4,83.3 262.4,192.6 277.4,192.6 		"/>
		<polyline id="L1L" class="st2" points="194,255.3 83.2,255.3 83.2,270.3 194,270.3 194,255.3 		"/>
		<line id="L2U_1_" class="st4" x1="90.8" y1="146.7" x2="90.8" y2="256.4"/>
		<path id="L3R_1_" class="st2" d="M105.1,161.7h-7.6v-15h7.6V161.7z M146.1,146.7c4.2,0,7.6,3.4,7.6,7.5s-3.4,7.5-7.6,7.5V146.7z
			 M105.1,146.7h41v15h-41C105.1,161.7,105.1,146.7,105.1,146.7z"/>
		<line id="L2L_1_" class="st4" x1="0" y1="262.8" x2="84.4" y2="262.8"/>
		<path id="L3D" class="st2" d="M15,317.6c0,4.2-3.4,7.5-7.5,7.5S0,321.8,0,317.6H15z M0,277.3v-7.5h15v7.5H0z M0,317.6v-40.3h15
			v40.3H0z"/>
		<line id="L2L" class="st4" x1="152.6" y1="90.7" x2="263.2" y2="90.7"/>
		<path id="L3U" class="st2" d="M152.6,76.4v7.5h15v-7.5H152.6z M167.6,36.4c0-4.1-3.4-7.5-7.5-7.5s-7.5,3.4-7.5,7.5H167.6z
			 M167.6,76.4v-40h-15v40H167.6z"/>
		<path id="L3R" class="st2" d="M325.3,15.9c4.2,0,7.6-3.4,7.6-7.5s-3.4-7.5-7.6-7.5V15.9z M284.2,0.9h-7.6v15h7.6V0.9z M325.3,0.9
			h-41.1v15h41.1V0.9z"/>
		<line id="L2U" class="st4" x1="269.9" y1="1" x2="269.9" y2="83.9"/>
		<polyline class="st3" points="381.5,176.9 366.5,176.9 366.5,176.9 381.5,176.9 381.5,176.9 		"/>
		<polyline class="st3" points="277.4,176.9 262.4,176.9 262.4,176.9 277.4,176.9 277.4,176.9 		"/>
		<polyline class="st3" points="460.1,260.4 460.1,260.4 460.1,275.4 460.1,275.4 460.1,260.4 		"/>
		<polyline class="st3" points="460.1,362.8 460.1,362.8 460.1,377.8 460.1,377.8 460.1,362.8 		"/>
		<polyline class="st3" points="272.2,456.1 257.2,456.1 257.2,456.1 272.2,456.1 272.2,456.1 		"/>
		<polyline class="st3" points="375.1,456.1 360.1,456.1 360.1,456.1 375.1,456.1 375.1,456.1 		"/>
		<g id="Core">
			<g>
				<g>
					<defs>
						<polyline id="SVGID_1_" points="178.1,176.9 460.1,176.9 460.1,456.1 178.1,456.1 178.1,176.9 						"/>
					</defs>
					<clipPath id="SVGID_2_">
						<use xlink:href="#SVGID_1_"  style="overflow:visible;"/>
					</clipPath>
					<path class="st5" d="M208.1,206.9h222v219.2h-222V206.9 M203,201.9L203,201.9 M435.1,191.9h-53.6v0.7h-15v-0.7h-89v0.7h-15
						v-0.7h-59.4c-5.5,0-10,4.5-10,10v53.4h0.9v15h-0.9v87.3h0.6v15h-0.6V431c0,5.5,4.5,10,10,10h54.2v-1.2h15v1.2h87.9v-1.2h15v1.2
						h60c5.5,0,10-4.5,10-10v-53.3h-0.6v-15h0.6v-87.4H444v-15h1.1v-58.4C445.1,196.4,440.6,191.9,435.1,191.9"/>
				</g>
			</g>
			<g>
				<g>
					<defs>
						<polyline id="SVGID_3_" points="178.1,176.9 460.1,176.9 460.1,456.1 178.1,456.1 178.1,176.9 						"/>
					</defs>
					<clipPath id="SVGID_4_">
						<use xlink:href="#SVGID_3_"  style="overflow:visible;"/>
					</clipPath>
					<polyline class="st6" points="445.1,260.4 444,260.4 444,275.4 445.1,275.4 445.1,260.4 					"/>
				</g>
			</g>
			<g>
				<g>
					<defs>
						<polyline id="SVGID_5_" points="178.1,176.9 460.1,176.9 460.1,456.1 178.1,456.1 178.1,176.9 						"/>
					</defs>
					<clipPath id="SVGID_6_">
						<use xlink:href="#SVGID_5_"  style="overflow:visible;"/>
					</clipPath>
					<polyline class="st7" points="193.6,357.7 193.1,357.7 193.1,372.7 193.6,372.7 193.6,357.7 					"/>
				</g>
			</g>
			<g>
				<g>
					<defs>
						<polyline id="SVGID_7_" points="178.1,176.9 460.1,176.9 460.1,456.1 178.1,456.1 178.1,176.9 						"/>
					</defs>
					<clipPath id="SVGID_8_">
						<use xlink:href="#SVGID_7_"  style="overflow:visible;"/>
					</clipPath>
					<polyline class="st8" points="272.2,439.9 257.2,439.9 257.2,441.1 272.2,441.1 272.2,439.9 					"/>
				</g>
			</g>
			<g>
				<g>
					<defs>
						<polyline id="SVGID_9_" points="178.1,176.9 460.1,176.9 460.1,456.1 178.1,456.1 178.1,176.9 						"/>
					</defs>
					<clipPath id="SVGID_10_">
						<use xlink:href="#SVGID_9_"  style="overflow:visible;"/>
					</clipPath>
					<polyline class="st9" points="375.1,439.9 360.1,439.9 360.1,441.1 375.1,441.1 375.1,439.9 					"/>
				</g>
			</g>
			<g>
				<g>
					<defs>
						<polyline id="SVGID_11_" points="178.1,176.9 460.1,176.9 460.1,456.1 178.1,456.1 178.1,176.9 						"/>
					</defs>
					<clipPath id="SVGID_12_">
						<use xlink:href="#SVGID_11_"  style="overflow:visible;"/>
					</clipPath>
					<polyline class="st10" points="445.1,362.8 444.5,362.8 444.5,377.8 445.1,377.8 445.1,362.8 					"/>
				</g>
			</g>
			<g>
				<g>
					<defs>
						<polyline id="SVGID_13_" points="178.1,176.9 460.1,176.9 460.1,456.1 178.1,456.1 178.1,176.9 						"/>
					</defs>
					<clipPath id="SVGID_14_">
						<use xlink:href="#SVGID_13_"  style="overflow:visible;"/>
					</clipPath>
					<polyline class="st11" points="277.4,191.9 262.4,191.9 262.4,192.6 277.4,192.6 277.4,191.9 					"/>
				</g>
			</g>
			<g>
				<g>
					<defs>
						<polyline id="SVGID_15_" points="178.1,176.9 460.1,176.9 460.1,456.1 178.1,456.1 178.1,176.9 						"/>
					</defs>
					<clipPath id="SVGID_16_">
						<use xlink:href="#SVGID_15_"  style="overflow:visible;"/>
					</clipPath>
					<polyline class="st12" points="194,255.3 193.1,255.3 193.1,270.3 194,270.3 194,255.3 					"/>
				</g>
			</g>
		</g>
		<path id="L2L_2_" class="st2" d="M312.9,632c-4.2,0-7.5-3.4-7.5-7.5s3.3-7.5,7.5-7.5V632z M353.2,617h7.5v15h-7.5V617z M312.9,617
			h40.3v15h-40.3V617z"/>
		<path id="S2R_1_" class="st2" d="M533.6,260.4H526v15h7.6V260.4z M599.5,275.4c4.2,0,7.6-3.4,7.6-7.5s-3.4-7.5-7.6-7.5V275.4z
			 M533.6,275.4h65.9v-15h-65.9V275.4z"/>
	</g>
	<rect x="366.5" y="191.9" class="st2" width="15" height="6.3"/>
	<rect x="262.4" y="191.9" class="st2" width="15" height="6.3"/>
</g>
<g id="Layer_4">
	<rect x="193.1" y="255.3" class="st2" width="4.9" height="15"/>
	<rect x="193.1" y="357.7" class="st2" width="4.9" height="15"/>
	<rect x="439.6" y="260.4" class="st2" width="4.9" height="15"/>
	<rect x="440.1" y="362.8" class="st2" width="4.9" height="15"/>
	<rect x="257.2" y="436.2" class="st2" width="15" height="4.9"/>
	<rect x="360.1" y="436.2" class="st2" width="15" height="4.9"/>
</g>
</svg>
