<svg width="349" height="342" viewBox="0 0 349 342" fill="none" xmlns="http://www.w3.org/2000/svg">
<mask id="path-1-inside-1" fill="white">
<rect x="-95.9435" y="-99.0972" width="252.014" height="249.202" rx="10"/>
</mask>
<rect x="-95.9435" y="-99.0972" width="252.014" height="249.202" rx="10" stroke="white" stroke-width="30" mask="url(#path-1-inside-1)"/>
<line x1="78.6027" y1="150.108" x2="78.6027" y2="258.705" stroke="white" stroke-width="15"/>
<line y1="-7.5" x2="109.823" y2="-7.5" transform="matrix(1 8.64475e-08 8.84091e-08 -1 155.493 71.8008)" stroke="white" stroke-width="15"/>
<line y1="-7.5" x2="108.597" y2="-7.5" transform="matrix(4.42045e-08 -1 -1 -4.32237e-08 250.286 195.259)" stroke="white" stroke-width="15"/>
<path d="M242.772 180.328L250.272 180.328L250.272 195.328L242.772 195.328L242.772 180.328ZM202.311 195.328C198.169 195.328 194.811 191.971 194.811 187.828C194.811 183.686 198.169 180.328 202.311 180.328L202.311 195.328ZM242.772 195.328L202.311 195.328L202.311 180.328L242.772 180.328L242.772 195.328Z" fill="white"/>
<line y1="-7.5" x2="83.234" y2="-7.5" transform="matrix(-1 0 0 1 348.549 86.6615)" stroke="white" stroke-width="15"/>
<path d="M333.535 24.3608C333.535 20.2187 336.893 16.8608 341.035 16.8608C345.177 16.8608 348.535 20.2187 348.535 24.3608L333.535 24.3608ZM348.535 64.3704L348.535 71.8704L333.535 71.8704L333.535 64.3704L348.535 64.3704ZM348.535 24.3608L348.535 64.3704L333.535 64.3704L333.535 24.3608L348.535 24.3608Z" fill="white"/>
<line x1="195.953" y1="251.342" x2="86.1308" y2="251.342" stroke="white" stroke-width="15"/>
<path d="M195.939 265.562L195.939 258.062L180.939 258.062L180.939 265.562L195.939 265.562ZM180.939 305.571C180.939 309.713 184.297 313.071 188.439 313.071C192.581 313.071 195.939 309.713 195.939 305.571L180.939 305.571ZM180.939 265.562L180.939 305.571L195.939 305.571L195.939 265.562L180.939 265.562Z" fill="white"/>
<line x1="78.6307" y1="341.008" x2="78.6307" y2="258.703" stroke="white" stroke-width="15"/>
<path d="M23.1273 326.078C18.9851 326.078 15.6273 329.436 15.6273 333.578C15.6273 337.72 18.9851 341.078 23.1273 341.078L23.1273 326.078ZM63.5882 341.078L71.0882 341.078L71.0882 326.078L63.5882 326.078L63.5882 341.078ZM23.1273 341.078L63.5882 341.078L63.5882 326.078L23.1273 326.078L23.1273 341.078Z" fill="white"/>
</svg>
