<svg width="38" height="39" viewBox="0 0 38 39" fill="none" xmlns="http://www.w3.org/2000/svg">
<path d="M19 0.5C8.512 0.5 0 9.012 0 19.5C0 29.988 8.512 38.5 19 38.5C29.488 38.5 38 29.988 38 19.5C38 9.012 29.488 0.5 19 0.5ZM13.68 29.114C12.35 29.114 11.02 29.114 9.69 29.114C9.69 24.858 9.69 20.602 9.69 16.346C9.69 16.308 9.69 16.27 9.728 16.27C11.058 16.27 12.388 16.27 13.718 16.27C13.68 20.526 13.68 24.82 13.68 29.114ZM10.374 14.142C9.766 13.724 9.272 12.85 9.386 11.824C9.5 11.064 10.032 10.418 10.602 10.114C10.792 10 11.058 9.924 11.362 9.924C12.882 9.734 14.022 10.798 14.022 12.242C13.984 13.99 11.97 15.206 10.374 14.142ZM28.652 29.114C27.322 29.114 25.992 29.114 24.662 29.114C24.662 27.67 24.662 26.15 24.662 24.516C24.662 22.578 24.928 20.336 23.598 19.652C22.952 19.31 22.078 19.424 21.508 19.652C20.064 20.298 20.178 22.35 20.178 24.592C20.178 26.15 20.178 27.784 20.178 29.114C18.848 29.114 17.518 29.114 16.188 29.114C16.188 24.82 16.188 20.526 16.188 16.27C17.48 16.27 18.734 16.27 20.026 16.27C20.026 16.84 20.026 17.448 20.026 18.018C20.178 17.904 20.216 17.752 20.33 17.6C21.014 16.688 22.23 15.928 23.788 15.928C25.764 15.928 27.17 16.612 27.892 17.866C28.652 19.196 28.652 21.058 28.652 23.148C28.652 25.086 28.652 27.214 28.652 29.114Z" fill="white"/>
</svg>
