<svg width="133" height="133" viewBox="0 0 133 133" fill="none" xmlns="http://www.w3.org/2000/svg">
<mask id="path-1-inside-1" fill="white">
<rect y="5.42783" width="127.522" height="127.522" rx="5.20381" transform="rotate(-2.43946 0 5.42783)"/>
</mask>
<rect y="5.42783" width="127.522" height="127.522" rx="5.20381" transform="rotate(-2.43946 0 5.42783)" stroke="#213C4D" stroke-width="20.8152" mask="url(#path-1-inside-1)"/>
<path d="M63.3032 49.4892L53.6057 59.4562L96.9768 107.405C98.8625 109.425 102.23 109.425 104.25 107.405L109.504 102.017C111.524 100.132 111.524 96.7644 109.504 94.7441L63.3032 49.4892ZM22.6248 59.7256L29.8984 67.1335C31.3801 68.6151 33.6706 68.6151 35.2863 67.1335L36.9026 65.3825C38.1149 64.305 38.6537 62.2847 37.9802 61.3419C36.7679 60.5337 37.172 58.1093 39.4619 55.9543C42.6946 52.5871 46.8702 52.4524 48.4859 54.2033C49.1594 54.7421 51.3145 57.0318 51.3145 57.0318L61.2821 47.1995L59.6657 45.5833C59.6657 45.5833 59.2617 45.1792 58.4535 44.2364C55.3554 41.1385 58.5882 37.6366 58.5882 37.6366C67.3435 29.0165 79.6002 29.1512 79.6002 29.1512L79.7349 26.0533C55.0854 19.723 45.7919 30.4981 42.4245 33.8653C39.3265 36.9632 36.0945 40.195 35.2856 41.0038C33.5345 42.7548 35.2856 47.7383 32.7264 50.5667C31.5141 51.7789 29.8977 52.3177 28.6854 52.3177C27.3385 51.1055 25.1833 51.5096 24.1058 52.7218L22.6241 54.338C21.1431 55.8196 21.1431 58.1093 22.6248 59.7256Z" fill="#213C4D"/>
</svg>
