<svg width="35" height="35" viewBox="0 0 35 35" fill="none" xmlns="http://www.w3.org/2000/svg">
<path d="M29.1181 17.4997L15.8802 4.26253C14.9289 3.31083 14.9289 1.76805 15.8802 0.816739C16.8315 -0.134958 18.3742 -0.134958 19.3259 0.816739L34.2868 15.7774C34.7625 16.2533 35 16.8764 35 17.4997C35 18.1233 34.762 18.7468 34.2868 19.2225L19.3259 34.183C18.3742 35.1352 16.8314 35.1352 15.8802 34.183C14.9289 33.2317 14.9289 31.6888 15.8802 30.7375L29.1181 17.4997ZM0.713483 30.7375C-0.237828 31.6888 -0.237828 33.2318 0.713483 34.183C1.66479 35.1352 3.20704 35.1352 4.15927 34.183L19.1202 19.2225C19.5959 18.7469 19.833 18.1234 19.833 17.4998C19.833 16.8765 19.5954 16.2529 19.1202 15.7775L4.15927 0.816739C3.20711 -0.134958 1.66479 -0.134958 0.713483 0.816739C-0.237828 1.76805 -0.237828 3.31075 0.713483 4.26253L13.9517 17.4997L0.713483 30.7375Z" fill="#213C4D"/>
</svg>
