<svg width="38" height="39" viewBox="0 0 38 39" fill="none" xmlns="http://www.w3.org/2000/svg">
<path d="M19 0.5C8.512 0.5 0 9.012 0 19.5C0 29.988 8.512 38.5 19 38.5C29.488 38.5 38 29.988 38 19.5C38 9.012 29.488 0.5 19 0.5ZM31.084 23.756C30.856 24.592 30.78 24.858 30.666 25.086L30.59 25.238C29.564 27.594 27.284 29.114 22.572 29.608H15.884C11.476 29.114 8.968 27.594 7.714 25.276C7.714 25.276 7.676 25.2 7.638 25.124C7.524 24.896 7.41 24.63 7.296 24.364C7.22 24.25 7.22 24.288 7.22 24.174C6.764 22.92 6.574 21.476 6.574 19.842C6.574 17.714 7.334 15.966 8.626 14.598C8.436 14.104 7.752 12.09 8.816 9.43C8.816 9.43 10.45 8.898 14.212 11.444C15.77 11.026 17.48 10.798 19.114 10.798C20.634 10.798 22.154 10.988 23.56 11.33C26.182 9.582 27.74 9.354 28.386 9.354C28.652 9.354 28.766 9.392 28.766 9.392C29.678 11.672 29.336 13.42 29.108 14.218C30.514 15.624 31.388 17.486 31.388 19.804C31.426 21.476 31.312 22.92 31.084 23.756Z" fill="white"/>
</svg>
