<?xml version="1.0" encoding="utf-8"?>
<!-- Generator: Adobe Illustrator 24.3.0, SVG Export Plug-In . SVG Version: 6.00 Build 0)  -->
<svg version="1.1" xmlns="http://www.w3.org/2000/svg" xmlns:xlink="http://www.w3.org/1999/xlink" x="0px" y="0px"
	 viewBox="0 0 98.3 72.2" style="enable-background:new 0 0 98.3 72.2;" xml:space="preserve">
<style type="text/css">
	.st0{display:none;}
	.st1{display:inline;}
	.st2{fill:#FFFFFF;}
</style>
<g id="Layer_2" class="st0">
	<rect x="0" class="st1" width="114.3" height="71.9"/>
</g>
<g id="Layer_1">
	<g>
		<path class="st2" d="M4.2,3.4v10.7h11.7v3.4H4.2v11h13.1v3.5H0V0h17.2v3.4H4.2z"/>
		<path class="st2" d="M48.8,32.1h-4.2L27.8,6.6v25.5h-4.2V0h4.2l16.8,25.5V0h4.2V32.1z"/>
	</g>
	<g>
		<path class="st2" d="M58,43.3V54h11.7v3.4H58v11h13.1v3.5H53.8V39.8h17.2v3.4H58z"/>
		<path class="st2" d="M81.9,71.1c-1.7-0.8-3-1.8-3.9-3.1c-1-1.3-1.4-2.9-1.5-4.6H81c0.2,1.5,0.8,2.8,1.9,3.8c1.1,1,2.7,1.5,4.8,1.5
			c2,0,3.6-0.5,4.7-1.5c1.2-1,1.7-2.3,1.7-3.8c0-1.2-0.3-2.2-1-3c-0.7-0.8-1.5-1.3-2.5-1.7c-1-0.4-2.4-0.8-4.1-1.3
			c-2.1-0.6-3.8-1.1-5.1-1.7c-1.3-0.6-2.4-1.4-3.3-2.6c-0.9-1.2-1.4-2.8-1.4-4.8c0-1.7,0.4-3.3,1.3-4.6c0.9-1.3,2.1-2.4,3.7-3.1
			c1.6-0.7,3.5-1.1,5.5-1.1c3,0,5.5,0.8,7.4,2.3c1.9,1.5,3,3.5,3.2,6h-4.6c-0.2-1.2-0.8-2.3-1.9-3.2c-1.1-0.9-2.6-1.4-4.5-1.4
			c-1.7,0-3.2,0.5-4.3,1.4c-1.1,0.9-1.7,2.2-1.7,3.8c0,1.2,0.3,2.1,1,2.9c0.7,0.7,1.5,1.3,2.4,1.7c1,0.4,2.3,0.8,4.1,1.3
			c2.1,0.6,3.8,1.2,5.1,1.7c1.3,0.6,2.4,1.4,3.3,2.6c0.9,1.2,1.4,2.8,1.4,4.8c0,1.6-0.4,3-1.2,4.4C96.2,69,95,70.1,93.4,71
			c-1.6,0.9-3.5,1.3-5.8,1.3C85.5,72.2,83.6,71.9,81.9,71.1z"/>
	</g>
	<g>
		<path class="st2" d="M61.6,24.8c0.9,1.3,2.4,1.3,3.3,0c0.9-1.3,0.9-3.3,0-4.6l-3-4.1h28.1c2-0.1,3.7,2.1,3.7,4.9l0,0v7.9
			c0,1.8,1.1,3.2,2.3,3.2c1.3,0,2.3-1.4,2.3-3.2V21c0-6.3-3.8-11.4-8.4-11.3H61.8l3-4.1c0.9-1.3,0.9-3.3,0-4.5l0,0
			c-0.9-1.3-2.4-1.3-3.3,0l0,0l-7,9.6c-0.9,1.2-0.9,3.3,0,4.5l0,0L61.6,24.8z"/>
	</g>
	<g>
		<path class="st2" d="M40.3,47c-1-1.3-2.6-1.3-3.6,0c-1,1.3-1,3.4,0,4.7l3.3,4.2H9.2c-2.2,0.1-4-2.2-4.1-5l0,0v-8.1
			c0-1.8-1.2-3.3-2.6-3.3S0,40.9,0,42.7v8.1c0,6.4,4.2,11.6,9.2,11.6H40l-3.3,4.2c-1,1.3-1,3.3,0,4.6l0,0c1,1.3,2.6,1.3,3.6,0l0,0
			l7.7-9.8c1-1.3,1-3.3,0-4.6l0,0L40.3,47z"/>
	</g>
	<g>
	</g>
	<g>
	</g>
	<g>
	</g>
	<g>
	</g>
	<g>
	</g>
	<g>
	</g>
</g>
</svg>
