<svg width="149" height="149" viewBox="0 0 149 149" fill="none" xmlns="http://www.w3.org/2000/svg">
<path d="M0 74.5V149H149V0H0V74.5ZM120.075 68.5648C123.862 69.5085 126.743 71.191 129.394 73.935C130.766 75.4002 132.802 78.0698 132.964 78.7155C133.014 78.9017 126.532 83.2475 122.608 85.6874C122.466 85.7805 121.894 85.1659 121.261 84.2223C119.337 81.4285 117.331 80.2241 114.258 80.013C109.739 79.7026 106.833 82.068 106.858 86.0165C106.817 86.9875 107.035 87.9519 107.491 88.8102C108.484 90.8652 110.335 92.1006 116.121 94.6026C126.793 99.1968 131.356 102.22 134.193 106.523C137.359 111.322 138.073 118.989 135.919 124.688C133.56 130.884 127.693 135.093 119.436 136.484C116.884 136.937 110.831 136.869 108.087 136.372C102.102 135.304 96.4278 132.349 92.9263 128.469C91.5543 126.96 88.8785 123.006 89.0461 122.726C89.1144 122.627 89.729 122.248 90.412 121.851C91.0825 121.472 93.5844 120.026 95.9498 118.654L100.234 116.17L101.134 117.499C102.388 119.411 105.126 122.037 106.783 122.913C111.539 125.421 118.064 125.067 121.28 122.18C121.926 121.635 122.438 120.948 122.776 120.173C123.113 119.397 123.266 118.554 123.223 117.71C123.223 115.984 123.006 115.227 122.105 113.923C120.951 112.272 118.585 110.881 111.868 107.963C104.182 104.654 100.873 102.599 97.8433 99.3333C95.9524 97.1782 94.556 94.6354 93.752 91.8833C93.1871 89.7787 93.0443 84.5016 93.4913 82.3784C95.0744 74.947 100.681 69.7755 108.77 68.2358C111.396 67.7391 117.499 67.9254 120.075 68.5648ZM85.0976 74.7856L85.1473 80.8884H65.7463V135.994H52.0258V80.8884H32.6434V74.9035C32.6434 71.5883 32.7117 68.8194 32.8048 68.7573C32.8793 68.658 44.6814 68.6083 58.9854 68.6331L85.0293 68.7076L85.0976 74.7856Z" fill="#213C4D"/>
</svg>
